# xmcd
#
# Track frame offsets:
# 150
# 23142
# 52038
# 82082
# 121762
# 141458
# 175282
# 194948
# 215067
#
# Disc length: 3129 seconds
#
# Revision: 1
# Processed by: cddbd v1.5.2PL0 Copyright (c) Steve Scherf et al.
# Submitted via: Easy CD Ripper v2.38
#
DISCID=8f0c3709
DTITLE=Brainstorm - Stormin`
DYEAR=1977
DGENRE=R&B
TTITLE0=Loving Is really My Game - Brainstorm
TTITLE1=Waiting For Someone - Brainstorm
TTITLE2=This Must Be Heaven - Brainstorm
TTITLE3=Brainstorm
TTITLE4=Easy Thangs - Brainstorm
TTITLE5=Wake Up and Be Somebody - Brainstorm
TTITLE6=Stormin` - Brainstorm
TTITLE7=We Know A Place - Brainstorm
TTITLE8=Hanging On - Brainstorm
EXTD=
EXTT0=
EXTT1=
EXTT2=
EXTT3=
EXTT4=
EXTT5=
EXTT6=
EXTT7=
EXTT8=
PLAYORDER=
